<?xml version="1.0" encoding="us-ascii" standalone="no"?><svg xmlns="http://www.w3.org/2000/svg" xmlns:xlink="http://www.w3.org/1999/xlink" contentStyleType="text/css" height="209px" preserveAspectRatio="none" style="width:997px;height:209px;background:#FFFFFF;" version="1.1" viewBox="0 0 997 209" width="997px" zoomAndPan="magnify"><defs/><g><!--entity LV1--><g id="elem_LV1"><ellipse cx="131.95" cy="14" fill="#F1F1F1" rx="8" ry="8" style="stroke:#181818;stroke-width:0.5;"/><path d="M131.95,22 L131.95,49 M118.95,30 L144.95,30 M131.95,49 L118.95,64 M131.95,49 L144.95,64 " fill="none" style="stroke:#181818;stroke-width:0.5;"/><text fill="#000000" font-family="sans-serif" font-size="14" lengthAdjust="spacing" textLength="126" x="68.95" y="78.4951">Lead Vehicle (LV1)</text></g><!--entity CentralHub--><g id="elem_CentralHub"><ellipse cx="537.95" cy="14" fill="#F1F1F1" rx="8" ry="8" style="stroke:#181818;stroke-width:0.5;"/><path d="M537.95,22 L537.95,49 M524.95,30 L550.95,30 M537.95,49 L524.95,64 M537.95,49 L550.95,64 " fill="none" style="stroke:#181818;stroke-width:0.5;"/><text fill="#000000" font-family="sans-serif" font-size="14" lengthAdjust="spacing" textLength="81" x="497.45" y="78.4951">Central Hub</text></g><!--entity FV1--><g id="elem_FV1"><ellipse cx="904.95" cy="14" fill="#F1F1F1" rx="8" ry="8" style="stroke:#181818;stroke-width:0.5;"/><path d="M904.95,22 L904.95,49 M891.95,30 L917.95,30 M904.95,49 L891.95,64 M904.95,49 L917.95,64 " fill="none" style="stroke:#181818;stroke-width:0.5;"/><text fill="#000000" font-family="sans-serif" font-size="14" lengthAdjust="spacing" textLength="171" x="819.45" y="78.4951">Following Vehicle 1 (FV1)</text></g><!--entity FV2--><g id="elem_FV2"><ellipse cx="698.95" cy="14" fill="#F1F1F1" rx="8" ry="8" style="stroke:#181818;stroke-width:0.5;"/><path d="M698.95,22 L698.95,49 M685.95,30 L711.95,30 M698.95,49 L685.95,64 M698.95,49 L711.95,64 " fill="none" style="stroke:#181818;stroke-width:0.5;"/><text fill="#000000" font-family="sans-serif" font-size="14" lengthAdjust="spacing" textLength="171" x="613.45" y="78.4951">Following Vehicle 2 (FV2)</text></g><g id="elem_send_info"><ellipse cx="131.9468" cy="172.8094" fill="#F1F1F1" rx="125.9468" ry="27.5894" style="stroke:#181818;stroke-width:0.5;"/><text fill="#000000" font-family="sans-serif" font-size="14" lengthAdjust="spacing" textLength="220" x="21.9468" y="175.656">Send Information to Central Hub</text></g><g id="elem_receive_info"><ellipse cx="435.9469" cy="172.8114" fill="#F1F1F1" rx="143.0569" ry="31.0114" style="stroke:#181818;stroke-width:0.5;"/><text fill="#000000" font-family="sans-serif" font-size="14" lengthAdjust="spacing" textLength="256" x="307.9469" y="175.6581">Receive Information from Central Hub</text></g><g id="elem_start_platooning"><ellipse cx="894.9476" cy="172.8135" fill="#F1F1F1" rx="76.1676" ry="17.6335" style="stroke:#181818;stroke-width:0.5;"/><text fill="#000000" font-family="sans-serif" font-size="14" lengthAdjust="spacing" textLength="109" x="837.4476" y="176.5611">Start Platooning</text></g><g id="elem_handle_emergency"><ellipse cx="698.9492" cy="172.8118" fill="#F1F1F1" rx="84.8592" ry="19.3718" style="stroke:#181818;stroke-width:0.5;"/><text fill="#000000" font-family="sans-serif" font-size="14" lengthAdjust="spacing" textLength="130" x="633.9492" y="175.6585">Handle Emergency</text></g><!--link LV1 to send_info--><g id="link_LV1_send_info"><path d="M131.95,82.11 C131.95,102.33 131.95,120.82 131.95,139.09 " fill="none" id="LV1-to-send_info" style="stroke:#181818;stroke-width:1.0;"/><polygon fill="#181818" points="131.95,145.09,135.95,136.09,131.95,140.09,127.95,136.09,131.95,145.09" style="stroke:#181818;stroke-width:1.0;"/></g><!--link CentralHub to receive_info--><g id="link_CentralHub_receive_info"><path d="M507.9,82.11 C492.62,101.16 478.0549,119.3102 463.7249,137.1702 " fill="none" id="CentralHub-to-receive_info" style="stroke:#181818;stroke-width:1.0;"/><polygon fill="#181818" points="459.97,141.85,468.7222,137.3335,463.0991,137.9501,462.4824,132.327,459.97,141.85" style="stroke:#181818;stroke-width:1.0;"/></g><!--link CentralHub to start_platooning--><g id="link_CentralHub_start_platooning"><path d="M578.64,72.73 C584.31,76.04 590.18,79.17 595.95,81.8 C682.35,121.13 710.17,114.03 800.95,141.8 C817.66,146.91 830.2568,150.8771 846.2468,156.0071 " fill="none" id="CentralHub-to-start_platooning" style="stroke:#181818;stroke-width:1.0;"/><polygon fill="#181818" points="851.96,157.84,844.6122,151.2818,847.199,156.3126,842.1683,158.8994,851.96,157.84" style="stroke:#181818;stroke-width:1.0;"/></g><!--link CentralHub to handle_emergency--><g id="link_CentralHub_handle_emergency"><path d="M578.57,76.74 C609.5,101.16 646.2215,130.1712 671.5315,150.1612 " fill="none" id="CentralHub-to-handle_emergency" style="stroke:#181818;stroke-width:1.0;"/><polygon fill="#181818" points="676.24,153.88,671.6564,145.1627,672.3162,150.781,666.698,151.4408,676.24,153.88" style="stroke:#181818;stroke-width:1.0;"/></g><!--link FV1 to start_platooning--><g id="link_FV1_start_platooning"><path d="M902,82.11 C900.11,106.14 898.2223,130.2186 896.7623,148.7086 " fill="none" id="FV1-to-start_platooning" style="stroke:#181818;stroke-width:1.0;"/><polygon fill="#181818" points="896.29,154.69,900.986,146.0328,896.6836,149.7055,893.0109,145.4031,896.29,154.69" style="stroke:#181818;stroke-width:1.0;"/></g><!--link FV2 to start_platooning--><g id="link_FV2_start_platooning"><path d="M756.96,82.28 C794.66,106.75 836.8562,134.1249 865.1462,152.4749 " fill="none" id="FV2-to-start_platooning" style="stroke:#181818;stroke-width:1.0;"/><polygon fill="#181818" points="870.18,155.74,864.8061,147.4865,865.9852,153.0191,860.4526,154.1982,870.18,155.74" style="stroke:#181818;stroke-width:1.0;"/></g><!--link FV1 to handle_emergency--><g id="link_FV1_handle_emergency"><path d="M843.98,82.28 C805.42,106.09 762.4754,132.5881 732.5254,151.0781 " fill="none" id="FV1-to-handle_emergency" style="stroke:#181818;stroke-width:1.0;"/><polygon fill="#181818" points="727.42,154.23,737.1794,152.9058,731.6745,151.6034,732.9769,146.0985,727.42,154.23" style="stroke:#181818;stroke-width:1.0;"/></g><!--link FV2 to handle_emergency--><g id="link_FV2_handle_emergency"><path d="M698.95,82.11 C698.95,105.41 698.95,128.37 698.95,146.97 " fill="none" id="FV2-to-handle_emergency" style="stroke:#181818;stroke-width:1.0;"/><polygon fill="#181818" points="698.95,152.97,702.95,143.97,698.95,147.97,694.95,143.97,698.95,152.97" style="stroke:#181818;stroke-width:1.0;"/></g><!--SRC=[VP6z3i8m38HtdiBg10D3-m0iY0Wa1WHIryga1YAbCKe3YBSdIG7r3xhb_Dtvqg1qR66Rfu0r95l24dAwAAa9fbwT9HFm7qPgISPPrElRCSBl8_XpcnBlBC5QyqEPypSmXQdeHOey-m5d0Suy7EbRJH9hWkH0feIDER6jq2asu1ZQHK9QxPb2UQPhtPCaTQUE-sIv6lXj0uv471nQ1pkDZjdujisw81RNhzYrhD6K_ZghYkoPZ7n6ooMA1Nt4vfBX5URpHQz_ww-7uQ1SRpxQfiSCrWT6VBQF1OHt-ZDC_yLceyCN]--></g></svg>